<svg width="2304" height="800" viewBox="0 0 2304 800" fill="none" xmlns="http://www.w3.org/2000/svg">
<g clip-path="url(#clip0_45_274)">
<rect width="2304" height="800" fill="url(#paint0_linear_45_274)"/>
<path d="M526 440L-760 1070.3M526 450.554L-759.187 1080.85M526 461.094L-758.359 1091.39M526 471.648L-757.546 1101.95M526 482.202L-756.734 1112.5M526 492.743L-755.921 1123.04M526 503.297L-755.093 1133.6M526 513.851L-754.28 1144.15M526 524.391L-753.468 1154.69M526 534.945L-752.655 1165.24M526 545.499L-751.827 1175.8M526 556.053L-751.014 1186.35M526 566.594L-750.202 1196.89M526 577.148L-749.373 1207.45M526 587.702L-748.561 1218M526 598.242L-747.748 1228.54M526 608.796L-746.936 1239.1M526 619.35L-746.107 1249.65M526 629.891L-745.295 1260.19M526 640.445L-744.482 1270.74M526 650.999L-743.669 1281.3" stroke="white" stroke-width="0.506485" stroke-miterlimit="10"/>
<path d="M3088 -570L1802 60.2996M3088 -559.446L1802.81 70.8536M3088 -548.906L1803.64 81.3939M3088 -538.352L1804.45 91.948M3088 -527.798L1805.27 102.502M3088 -517.257L1806.08 113.042M3088 -506.703L1806.91 123.596M3088 -496.149L1807.72 134.151M3088 -485.609L1808.53 144.691M3088 -475.055L1809.34 155.245M3088 -464.501L1810.17 165.799M3088 -453.947L1810.99 176.353M3088 -443.406L1811.8 186.893M3088 -432.852L1812.63 197.447M3088 -422.298L1813.44 208.001M3088 -411.758L1814.25 218.542M3088 -401.204L1815.06 229.096M3088 -390.65L1815.89 239.65M3088 -380.109L1816.71 250.19M3088 -369.555L1817.52 260.744M3088 -359.001L1818.33 271.298" stroke="white" stroke-width="0.506485" stroke-miterlimit="10"/>
<path d="M734 823.645L942.938 720" stroke="white" stroke-width="1.18792" stroke-miterlimit="10"/>
<path d="M393 155.645L601.938 52" stroke="white" stroke-width="1.18792" stroke-miterlimit="10"/>
<path d="M905 51.6449L1113.94 -52" stroke="white" stroke-width="1.18792" stroke-miterlimit="10"/>
<path d="M1832 579.645L2040.94 476" stroke="white" stroke-width="1.18792" stroke-miterlimit="10"/>
</g>
<defs>
<linearGradient id="paint0_linear_45_274" x1="16.756" y1="400.194" x2="2320.76" y2="400.194" gradientUnits="userSpaceOnUse">
<stop stop-color="#CC092F"/>
<stop offset="0.4" stop-color="#CC092F"/>
<stop offset="0.51" stop-color="#CA0A34"/>
<stop offset="0.66" stop-color="#C50D45"/>
<stop offset="0.82" stop-color="#BC1260"/>
<stop offset="0.9" stop-color="#B81570"/>
<stop offset="1" stop-color="#B81570"/>
</linearGradient>
<clipPath id="clip0_45_274">
<rect width="2304" height="800" fill="white"/>
</clipPath>
</defs>
</svg>
